<svg xmlns="http://www.w3.org/2000/svg" viewBox="0 0 256 256">
  <rect width="256" height="256" fill="#1a5f3a"/>
  <path d="M128 60 L148 100 L192 100 L158 126 L172 168 L128 142 L84 168 L98 126 L64 100 L108 100 Z" fill="#d4af37"/>
  <circle cx="128" cy="140" r="48" fill="#ffffff"/>
  <path d="M128 92 L138 112 L118 112 Z M108 120 L98 140 L118 140 Z M148 120 L158 140 L138 140 Z M108 160 L118 180 L98 180 Z M148 160 L158 180 L138 180 Z M128 188 L138 168 L118 168 Z" fill="#1a5f3a"/>
  <path d="M118 112 L108 120 L118 140 L128 132 Z M138 112 L148 120 L138 140 L128 132 Z M98 140 L108 160 L118 168 L118 140 Z M158 140 L148 160 L138 168 L138 140 Z M118 168 L128 180 L138 168 L128 160 Z" fill="#1a5f3a"/>
</svg>